@startuml diagramaDeClasesDominio.
!theme reddress-darkblue

' -----------------------------------------

class PersonaHumana {
 - contacto: Contacto
 - direccion: Direccion
 - nombre: String
 - apellido: String
 - documento: Documento
 - fechaNacimiento: LocalDate
 - ofertasCanjeadas: List<OfertaCanjeada>
 - contribucionesElegidas: Set<FormasContribucionHumanas>
 - contribuciones: Set<Contribucion>
 - ofertasCanjeadas: Set<OfertaCanjeada>
 - formulario: List<Respuesta>

 + puntosGastados(): float
 + calcularPuntajeNeto(): float
 + agregarContribucion(contribucion: Contribucion): void
 + agregarOfertaCanjeada(ofertaCanjeada: OfertaCanjeada): void
}

PersonaHumana --> " * " Contribucion
PersonaHumana --> Contacto
PersonaHumana --> Direccion
PersonaHumana --> Documento
PersonaHumana --> " * " FormasContribucionHumanas
PersonaHumana --> Usuario
PersonaHumana --> " * " OfertaCanjeada
PersonaHumana --> " * " Respuesta

' -----------------------------------------

class Vianda {
 - fechaCaducidad: LocalDate
 - entregada: boolean
 - comida: String
 - peso: float
 - fechaDonacion: LocalDate
 + calcularPuntaje(): float
 + estaVencida(): boolean
}

Vianda ..|> Contribucion

' -----------------------------------------

class Heladera {
 - nombre: String
 - direccion: Direccion
 - fechaRegistro: LocalDate
 - capacidadMaximaViandas: int
 - activa: boolean
 - modelo: Modelo
 - viandas: Set<Vianda>
 - estado: EstadoHeladera
 - temperaturaEsperada: float
 - adapterTemperatura: AdapterSensorTemperatura
 - adapterMovimiento: AdapterSensorMovimiento
 - historialEstados: List<CambioEstado>
 + ingresarViandas(viandas: List<Vianda>): void
 + quitarViandas(viandas: List<Vianda>): void
 + temperaturaReal(): float
 + calcularPuntaje(): float
 + recalcularEstado(): void
}

note right
recalcularEstado() se actualiza cada cierto tiempo 
para consultar:
 - Si hubo fraude
 - La heladera sobrepaso la temperatura maxima
 - La heladera no supera la temperatura minima
end note


Heladera --> "*" Vianda
Heladera --> Modelo
Heladera --> Direccion
Heladera ..|> Contribucion
Heladera --> EstadoHeladera
Heladera --> AdapterSensorTemperatura
Heladera --> AdapterSensorMovimiento
Heladera --> " * " CambioEstado

' -----------------------------------------

class CambioEstado {
 - fechaCambio: LocalDate
 - estado: EstadoHeladera
}

CambioEstado --> EstadoHeladera

note bottom
Permite trazabilidad
end note


' -----------------------------------------

class Modelo {
 - modelo: String
 - temperaturaMinima: float
 - temperaturaMaxima: float
}

' -----------------------------------------

class DistribucionVianda {
 - heladeraOrigen: Heladera
 - heladeraDestino: Heladera
 - cantidadViandas: int
 - motivo: String
 - fecha: LocalDate
 + distribuir(viandas: List<Vianda>): void
 + calcularPuntaje(): float
}

DistribucionVianda --> Heladera
DistribucionVianda --> Heladera
DistribucionVianda ..> " * " Vianda
DistribucionVianda ..|> Contribucion

' -----------------------------------------

interface Contribucion {
 + calcularPuntaje(): float
}

note bottom
Las contribuciones comparten la funcionalidad de sumar puntos, por lo
tanto, decidimos que implementen una interfaz de contribucion y de esta
forma agrupar las contribuciones, permitiendo trazabilidad.
end note

' -----------------------------------------

class DonacionDinero {
 - monto: float
 - frecuencia: Integer
 - unidadFrecuencia: String
 - fecha: LocalDate
 + calcularPuntaje(): float
}

DonacionDinero ..|> Contribucion

note bottom
unidadFrecuencia podría tener los valores:
 - Semanal
 - Mensual
 - Anual
end note

' -----------------------------------------

class Oferta {
 - nombre: String
 - cantidadPuntosNecesarios: float
 - imagen: ???
 - rubro: Rubro
 - organizacion: PersonaJuridica
 + canjear(): void
}

Oferta --> PersonaJuridica
Oferta --> Rubro

class OfertaCanjeada {
   oferta: Oferta
   fechaCanje: LocalDateTime
}

OfertaCanjeada --> Oferta


' -----------------------------------------

class Rubro {
 - nombre: String
}

' -----------------------------------------

class Documento {
 - tipo: TipoDocumento
 - documento: String
}

Documento --> TipoDocumento

' -----------------------------------------

interface MedioDeContacto {
 + enviar(mensaje: Mensaje)
}

MedioDeContacto ..> Mensaje

' -----------------------------------------

class WhatsApp {
 - numero: String
 + enviar(mensaje: Mensaje)
}

WhatsApp ..|> MedioDeContacto

' -----------------------------------------

class Telefono {
 - numero: String
 + enviar(mensaje: Mensaje)
}

Telefono ..|> MedioDeContacto

' -----------------------------------------

class Mail {
 - correo: String
 - adapterMail: AdapterMail
 + enviar(mensaje: Mensaje)
}

Mail ..|> MedioDeContacto
Mail -> AdapterMail

' -----------------------------------------

interface AdapterMail {
 + enviar(mensaje: Mensaje, correo: String)
}
note bottom
Utilizamos un adapter para tener mayor testeabilidad,
mantenibilidad y un menor acoplamiento
end note

' -----------------------------------------

class AdapterConcretoPuntos {
 - servicioRecomendacionPunto: RecomendacionPuntosServicio
 + recomendacion(latitud: String, longitud: String, radio: float): List<Coordenada>
}

note top
Por mantenibilidad, cohesion y testeabilidad utilizamos el patron
adapter.
end note

AdapterConcretoPuntos ..|> AdapterRecomendacionPuntosHeladera
AdapterConcretoPuntos --> RecomendacionPuntosServicio

' -----------------------------------------

class RecomendacionPuntosServicio {
 - urlAPI: String
 - retrofit: Retrofit
 + listadoPuntosRecomendados(float radio, String latitud, String longitud): ListadoPuntosRecomendados
}

RecomendacionPuntosServicio ..> ListadoPuntosRecomendados

' -----------------------------------------

class ListadoPuntosRecomendados {
 - parametro: Parametro
 + puntos: List<Coordenada>
}

ListadoPuntosRecomendados --> Parametro
ListadoPuntosRecomendados --> " * " Coordenada

class Parametro {
 + latitud: String
 + longitud: String
 + radio: float
}

' -----------------------------------------

class RecomendacionDePuntos {
 - adapterPuntos: AdapterRecomendacionPuntosHeladera
 + recomendacion(latitud: String, longitud: String, radio: float): List<Coordenada>
}

RecomendacionDePuntos --> AdapterRecomendacionPuntosHeladera

' -----------------------------------------

class MailSender {
 + enviar(mensaje: Mensaje, destinatario: String)
}

MailSender ..|> AdapterMail 


' -----------------------------------------

class Tecnico {
 - nombre: String
 - apellido: String
 - documento: Documento
 - cuil: String
 - contacto: Contacto
 - areasDeCobertura: Set<Area>
}

Tecnico --> Contacto
Tecnico --> Area
Tecnico --> Documento
Tecnico --> Usuario

' -----------------------------------------

class Area {
 - nombre: String
}

' -----------------------------------------

class Mensaje {
 - asunto: String
 - cuerpo: String
 - fecha: LocalDateTime
}

' -----------------------------------------

class Contacto {
 - mediosDeContacto: Set<MedioDeContacto>
 + agregarMedioDeContacto(medioDeContacto: MedioDeContacto): void
 + quitarMedioDeContacto(medioDeContacto: MedioDeContacto): void
}

Contacto --> "*" MedioDeContacto

' -----------------------------------------

class Respuesta {
 - pregunta: Pregunta
 - contenido: String
}

Respuesta ---> Pregunta

' -----------------------------------------
interface Pregunta {
 + esValida(respuesta: String): boolean
}

class MultipleChoice {
 - campo: String
 - activa: boolean
 - opciones: Set<String>
 + esValida(respuesta: String): boolean
}

MultipleChoice ..|> Pregunta

class PreguntaAbierta {
 - campo: String
 - activa: boolean
 + esValida(respuesta: String): boolean
}

PreguntaAbierta ..|> Pregunta

' -----------------------------------------

class ReconocimientoTrabajoRealizado {
 - static coeficientes: Map<String, float>
 + calcularPuntaje(contribuciones: Set<Contribucion>, puntajeGastado: float): float
}

ReconocimientoTrabajoRealizado ..> " * " Contribucion

note bottom
Esta clase es un Singleton y los coeficientes se encuentran en un archivo de configuración.
Utilizar este patrón de diseño en este caso no afecta la testeabilidad ya que no es
necesario un mock.
end note

' -----------------------------------------

class Tarjeta {
 - codigo: String
 - historialUsos: List<UsoDeTarjeta>
 - fechaEntrega: LocalDate
 + calcularPuntaje(): float
 + agregarUso(usoTarjeta: UsoDeTarjeta): void
}

Tarjeta --> " * " UsoDeTarjeta
Tarjeta ..|> Contribucion

' -----------------------------------------

class UsoDeTarjeta {
 - fecha: LocalDateTime
 - heladera: Heladera
}

UsoDeTarjeta --> Heladera

note right
Permite trazabilidad
end note

' -----------------------------------------

class PersonaVulnerable {
 - nombre: String
 - fechaDeNacimiento: LocalDate
 - fechaDeRegistro: LocalDate
 - dirección: String
 - menoresACargo: int
 - documento: Documento
 - donanteQueLoRegistro: PersonaHumana
 + usarTarjeta(heladera: Heladera, vianda: Vianda): void
 + contarUsosHoy(): int;
}

PersonaVulnerable --> PersonaHumana
PersonaVulnerable --> Documento

' -----------------------------------------

class PersonaJuridica {
 - usuario: String
 - contacto: Contacto
 - dirección: Direccion
 - razonSocial: String
 - tipo: TipoPersonaJuridica
 - rubro: Rubro
 - contribucionesElegidas: Set<FormasContribucionJuridicas>
 - heladerasACargo: Set<Heladera>
 - contribuciones: Set<Contribucion>
 - ofertasCanjeadas: Set<OfertaCanjeada>

 + hacerseCargoDeHeladera(heladera: Heladera): void
 + darDeBajaHeladera(heladera: Heladera): void
 + agregarContribucion(contribucion: Contribucion): void
 + puntosGastados(): float
 + calcularPuntajeNeto(): float

}

PersonaJuridica --> " * " FormasContribucionJuridica
PersonaJuridica --> Rubro
PersonaJuridica --> Contacto
PersonaJuridica --> Direccion
PersonaJuridica --> "*" Heladera
PersonaJuridica --> TipoPersonaJuridica
PersonaJuridica --> Usuario

' -----------------------------------------

class Direccion {
 - direccion: String
 - coordenada: Coordenada
}

Direccion --> Coordenada

' -----------------------------------------

class Coordenada {
 - latitud: String
 - longitud: String
}

' -----------------------------------------

interface AdapterRecomendacionPuntosHeladera {
 + recomendacion(latitud: String, longitud: String, radio: float): Set<Coordenada>
}

AdapterRecomendacionPuntosHeladera ..> " * " Coordenada

' -----------------------------------------

enum FormasContribucionHumanas {
 DISTRIBUCION_VIANDAS
 DONACION_DINERO
 DONACION_VIANDA
 ENTREGA_TARGETAS
}

enum FormasContribucionJuridica {
 DONACION_DINERO
 ENCARGARSE_DE_HELADERA
 OFRECER_OFERTA
}

enum TipoPersonaJuridica {
 GUBERNAMENTAL
 ONG
 EMPRESA
 INSTITUCION
}

enum TipoDocumento {
 LC
 LE
 DNI
}

enum EstadoHeladera {
 DESPERFECTO
 ACTIVA
 FRAUDE
}

note bottom
En un futuro esto puede ser resuelto mediante clases (quizás un state)
pero todavia no le encontramos una funcionalidad. Por
simplicidad decidimos dejarlo asi.
end note

' -----------------------------------------

class Usuario {
- nombre: String
- clave: String
- rol: Rol
+ cambiarClave(clave: String, validador: ValidadorDeClave): void
}

Usuario --> Rol
Usuario ..> ValidadorDeClave

' -----------------------------------------

class ValidadorDeClave{
- validadores: Set<TipoValidacion>
+ esValido(clave: String): boolean
}

ValidadorDeClave --> " * " TipoValidacion

' -----------------------------------------

interface TipoValidacion{
+ validar(clave: String): boolean
+ getMensajeError(): String
}

' -----------------------------------------

class LongitudEstipulada{
- longitudMaxima: int
- longitudMinima: int
+ validar(clave: String): boolean
+ getMensajeError(): String
}

LongitudEstipulada ..|> TipoValidacion

' -----------------------------------------

class ListaDePeoresClavesMemorizados{
+ validar(clave: String): boolean
+ getMensajeError(): String
}

ListaDePeoresClavesMemorizados ..|> TipoValidacion

' -----------------------------------------

class AusenciaDeCredencialesPorDefecto{
- usuario: String
+ validar(clave: String): boolean
+ getMensajeError(): String
}

AusenciaDeCredencialesPorDefecto ..|> TipoValidacion

' -----------------------------------------

class Rol {
- nombre: String
- permisos: Set<Permiso>
+ tenesPermiso(permiso: Permiso): boolean
}

Rol --> " * "Permiso

' -----------------------------------------

class Permiso {
- nombre: String
}

' -----------------------------------------

interface AdapterSensorTemperatura {
 + detectarTemperatura(): float 
}

note as notaAdapter
Utilizamos un adapter, ya que se requiere seguir adelante con el diseño sin
conocer exactamente cómo, quién y cuándo resolverá una parte necesaria; y
solamente se conoce qué responsabilidad tendrá dicha parte. Esto nos aporta
mayor testeabilidad, un menor acoplamiento, y mayor mantenibilidad.
end note

notaAdapter -- AdapterSensorTemperatura
notaAdapter -- AdapterSensorMovimiento

interface AdapterSensorMovimiento {
 + detectarFraude(): boolean 
}

' -----------------------------------------

@enduml